<svg width="45" height="32" viewBox="0 0 45 32" fill="none" xmlns="http://www.w3.org/2000/svg">
<path d="M38.6804 8H32.6804V0H4.68042C2.48042 0 0.68042 1.8 0.68042 4V26H4.68042C4.68042 29.32 7.36042 32 10.6804 32C14.0004 32 16.6804 29.32 16.6804 26H28.6804C28.6804 29.32 31.3604 32 34.6804 32C38.0004 32 40.6804 29.32 40.6804 26H44.6804V16L38.6804 8ZM37.6804 11L41.6004 16H32.6804V11H37.6804ZM10.6804 28C9.58042 28 8.68042 27.1 8.68042 26C8.68042 24.9 9.58042 24 10.6804 24C11.7804 24 12.6804 24.9 12.6804 26C12.6804 27.1 11.7804 28 10.6804 28ZM15.1204 22C14.0204 20.78 12.4604 20 10.6804 20C8.90042 20 7.34042 20.78 6.24042 22H4.68042V4H28.6804V22H15.1204ZM34.6804 28C33.5804 28 32.6804 27.1 32.6804 26C32.6804 24.9 33.5804 24 34.6804 24C35.7804 24 36.6804 24.9 36.6804 26C36.6804 27.1 35.7804 28 34.6804 28Z" fill="#FCFCFC"/>
</svg>
