<svg width="45" height="40" viewBox="0 0 45 40" fill="none" xmlns="http://www.w3.org/2000/svg">
<path d="M23.1244 35.71C22.7644 36.07 22.1244 36.13 21.7044 35.71C21.3444 35.35 21.2844 34.71 21.7044 34.29L28.4844 27.51L25.6644 24.69L18.8844 31.47C18.5044 31.87 17.8644 31.85 17.4644 31.47C17.0444 31.05 17.1044 30.41 17.4644 30.05L24.2444 23.27L21.4244 20.45L14.6444 27.23C14.2844 27.59 13.6444 27.65 13.2244 27.23C12.8444 26.85 12.8444 26.21 13.2244 25.81L20.0044 19.03L17.1644 16.21L10.3844 22.99C10.0244 23.35 9.38442 23.41 8.96442 22.99C8.58442 22.59 8.58442 21.97 8.96442 21.57L17.7244 12.81L21.4644 16.53C23.3644 18.43 26.6444 18.41 28.5444 16.53C30.5044 14.57 30.5044 11.41 28.5444 9.45001L24.8244 5.73001L25.3844 5.17001C26.9444 3.61001 29.4844 3.61001 31.0444 5.17001L39.5244 13.65C41.0844 15.21 41.0844 17.75 39.5244 19.31L23.1244 35.71ZM42.3444 22.15C45.4644 19.03 45.4644 13.97 42.3444 10.83L33.8644 2.35001C30.7444 -0.76999 25.6844 -0.76999 22.5444 2.35001L21.9844 2.91001L21.4244 2.35001C18.3044 -0.76999 13.2444 -0.76999 10.1044 2.35001L3.02442 9.43001C0.184419 12.27 -0.0755816 16.69 2.22442 19.81L5.12442 16.91C4.34442 15.41 4.60442 13.51 5.86442 12.25L12.9444 5.17001C14.5044 3.61001 17.0444 3.61001 18.6044 5.17001L25.7244 12.29C26.0844 12.65 26.1444 13.29 25.7244 13.71C25.3044 14.13 24.6644 14.07 24.3044 13.71L17.7244 7.15001L6.12442 18.73C4.16442 20.67 4.16442 23.85 6.12442 25.81C6.90442 26.59 7.90442 27.07 8.96442 27.21C9.10442 28.25 9.56442 29.25 10.3644 30.05C11.1644 30.85 12.1644 31.31 13.2044 31.45C13.3444 32.49 13.8044 33.49 14.6044 34.29C15.4044 35.09 16.4044 35.55 17.4444 35.69C17.5844 36.77 18.0644 37.75 18.8444 38.53C19.7844 39.47 21.0444 39.99 22.3844 39.99C23.7244 39.99 24.9844 39.47 25.9244 38.53L42.3444 22.15Z" fill="#FCFCFC"/>
</svg>
