<svg width="41" height="40" viewBox="0 0 41 40" fill="none" xmlns="http://www.w3.org/2000/svg">
<path d="M20.6804 0C9.64042 0 0.68042 8.96 0.68042 20C0.68042 31.04 9.64042 40 20.6804 40C31.7204 40 40.6804 31.04 40.6804 20C40.6804 8.96 31.7204 0 20.6804 0ZM20.6804 36C11.8604 36 4.68042 28.82 4.68042 20C4.68042 11.18 11.8604 4 20.6804 4C29.5004 4 36.6804 11.18 36.6804 20C36.6804 28.82 29.5004 36 20.6804 36ZM22.4604 18.2C18.9004 17.02 17.1804 16.28 17.1804 14.4C17.1804 12.36 19.4004 11.62 20.8004 11.62C23.4204 11.62 24.3804 13.6 24.6004 14.3L27.7604 12.96C27.4604 12.08 26.1204 9.14 22.4404 8.5V6H18.9404V8.52C13.7404 9.64 13.7004 14.22 13.7004 14.44C13.7004 18.98 18.2004 20.26 20.4004 21.06C23.5604 22.18 24.9604 23.2 24.9604 25.12C24.9604 27.38 22.8604 28.34 21.0004 28.34C17.3604 28.34 16.3204 24.6 16.2004 24.16L12.8804 25.5C14.1404 29.88 17.4404 31.06 18.9204 31.42V34H22.4204V31.52C23.4604 31.34 28.4604 30.34 28.4604 25.08C28.4804 22.3 27.2604 19.86 22.4604 18.2Z" fill="#FCFCFC"/>
</svg>
