<svg width="41" height="32" viewBox="0 0 41 32" fill="none" xmlns="http://www.w3.org/2000/svg">
<path d="M18.6804 26H22.6804V24H24.6804C25.7804 24 26.6804 23.1 26.6804 22V16C26.6804 14.9 25.7804 14 24.6804 14H18.6804V12H26.6804V8H22.6804V6H18.6804V8H16.6804C15.5804 8 14.6804 8.9 14.6804 10V16C14.6804 17.1 15.5804 18 16.6804 18H22.6804V20H14.6804V24H18.6804V26ZM36.6804 0H4.68042C2.46042 0 0.70042 1.78 0.70042 4L0.68042 28C0.68042 30.22 2.46042 32 4.68042 32H36.6804C38.9004 32 40.6804 30.22 40.6804 28V4C40.6804 1.78 38.9004 0 36.6804 0ZM36.6804 28H4.68042V4H36.6804V28Z" fill="#FCFCFC"/>
</svg>
